<?xml version="1.0" standalone="no"?>
<!DOCTYPE svg PUBLIC "-//W3C//DTD SVG 20010904//EN"
 "http://www.w3.org/TR/2001/REC-SVG-20010904/DTD/svg10.dtd">
<svg version="1.0" xmlns="http://www.w3.org/2000/svg"
 width="460.000000pt" height="460.000000pt" viewBox="0 0 460.000000 460.000000"
 preserveAspectRatio="xMidYMid meet">
<metadata>
Created by potrace 1.14, written by Peter Selinger 2001-2017
</metadata>
<g transform="translate(0.000000,460.000000) scale(0.100000,-0.100000)"
fill="#000000" stroke="none">
<path d="M2080 4539 c-118 -15 -224 -33 -258 -43 -9 -3 -31 -8 -47 -10 -43 -8
-216 -63 -301 -97 -339 -134 -654 -361 -891 -644 -74 -88 -203 -267 -203 -282
0 -3 -8 -17 -19 -31 -28 -41 -116 -218 -149 -302 -29 -74 -90 -264 -98 -304
-5 -27 -10 -50 -22 -106 -10 -42 -13 -65 -32 -215 -10 -81 -10 -344 0 -430 11
-90 20 -156 25 -175 2 -8 6 -31 9 -50 17 -109 73 -291 132 -430 20 -47 38 -93
41 -103 3 -9 9 -17 14 -17 5 0 8 -3 7 -7 -6 -21 120 -231 211 -353 98 -131
248 -291 356 -378 39 -32 76 -62 82 -69 7 -6 29 -21 50 -34 21 -13 40 -26 43
-30 3 -3 30 -21 60 -40 30 -18 57 -36 60 -40 14 -19 321 -160 421 -193 63 -21
119 -39 124 -40 6 -1 19 -5 30 -9 11 -3 31 -8 45 -11 14 -3 57 -12 95 -20 39
-9 93 -19 120 -22 28 -3 61 -8 75 -11 14 -3 111 -6 215 -8 204 -3 301 5 475
40 14 2 39 7 55 10 53 8 233 64 329 102 196 77 362 170 546 307 236 176 462
440 615 716 26 47 48 90 50 95 1 6 16 40 33 77 83 176 155 448 181 683 9 81 7
432 -2 472 -3 12 -8 50 -12 84 -4 35 -8 66 -11 70 -2 4 -6 24 -10 45 -3 22
-14 73 -25 114 -11 41 -22 82 -24 90 -29 122 -174 434 -270 579 -30 46 -55 88
-55 93 0 4 -4 8 -9 8 -5 0 -19 15 -30 33 -55 88 -241 281 -368 384 -110 89
-192 145 -313 214 -90 52 -121 68 -230 117 -109 48 -350 123 -444 137 -21 3
-41 7 -45 9 -4 3 -34 7 -66 11 -33 4 -71 9 -85 12 -44 9 -412 10 -480 2z m478
-93 c18 -3 52 -8 75 -11 37 -6 151 -29 200 -41 9 -2 25 -6 35 -8 87 -22 337
-117 382 -146 8 -6 26 -15 39 -20 56 -24 213 -123 309 -195 105 -78 296 -260
368 -349 21 -27 45 -55 52 -62 6 -7 12 -17 12 -22 0 -6 4 -12 8 -14 17 -7 129
-187 187 -302 116 -230 188 -467 223 -736 9 -74 9 -398 -1 -485 -31 -283 -141
-610 -287 -850 -16 -27 -33 -57 -37 -65 -4 -8 -10 -19 -15 -25 -4 -5 -42 -57
-85 -115 -79 -106 -255 -291 -348 -365 -27 -22 -52 -42 -55 -46 -3 -3 -27 -21
-55 -40 -27 -18 -52 -36 -55 -39 -6 -6 -24 -17 -132 -80 -157 -92 -315 -158
-498 -210 -87 -24 -90 -25 -190 -44 -123 -24 -216 -31 -395 -31 -208 0 -257 5
-480 49 -68 13 -203 56 -310 98 -147 58 -442 220 -453 249 -2 5 -10 9 -18 9
-8 0 -17 7 -20 15 -4 8 -12 15 -19 15 -7 0 -15 3 -17 8 -2 4 -25 25 -53 47
-53 42 -233 219 -275 270 -122 149 -204 275 -285 440 -94 192 -155 374 -190
571 -24 134 -30 212 -30 394 0 179 7 263 30 380 3 14 7 35 10 47 8 44 65 252
76 279 7 16 13 34 14 40 11 49 141 309 196 392 16 24 29 45 29 48 0 3 5 10 10
17 6 7 34 44 62 82 69 93 95 122 208 235 137 137 227 209 385 306 170 106 427
218 568 249 10 2 27 7 37 10 21 7 46 12 115 25 84 16 103 19 173 26 37 3 69 8
71 10 6 5 391 -3 429 -10z"/>
<path d="M2130 4359 c-25 -4 -65 -13 -90 -20 -43 -12 -53 -14 -112 -20 -31 -4
-38 -19 -9 -19 19 0 36 -31 45 -85 3 -16 10 -48 15 -70 5 -22 12 -52 15 -67 3
-16 9 -40 12 -55 3 -16 9 -46 14 -68 9 -35 7 -42 -13 -59 l-22 -19 35 6 c19 3
46 9 60 12 14 4 39 9 57 11 92 13 187 70 219 133 60 117 -21 306 -134 315 -15
1 -32 4 -37 7 -6 3 -30 2 -55 -2z m42 -27 c30 -12 74 -72 82 -112 31 -140 33
-156 20 -201 -8 -25 -22 -52 -31 -61 -24 -20 -80 -39 -98 -32 -13 6 -32 56
-40 109 -2 11 -6 29 -8 40 -31 125 -48 237 -37 250 19 23 65 26 112 7z"/>
<path d="M2588 4322 c21 -17 23 -23 18 -92 -3 -41 -6 -75 -6 -75 -1 0 -3 -13
-4 -30 -21 -208 -19 -198 -45 -211 -28 -14 -13 -20 59 -23 30 -1 59 -6 65 -11
6 -5 16 -5 23 -1 10 6 9 11 -3 21 -14 12 -16 27 -10 99 4 48 9 104 11 126 1
22 4 40 4 40 1 0 4 20 6 45 6 70 12 88 35 95 31 10 16 17 -48 21 -32 3 -74 6
-93 9 l-35 4 23 -17z"/>
<path d="M2995 4227 c-83 -33 -122 -76 -148 -163 -28 -97 -9 -174 57 -231 55
-49 126 -66 204 -48 28 7 32 5 32 -14 0 -11 5 -21 10 -21 6 0 9 3 9 8 -1 4 0
10 1 15 1 4 3 10 4 15 1 4 8 31 15 60 16 64 8 79 -14 26 -32 -81 -127 -110
-184 -56 -43 39 -54 108 -30 200 32 127 83 192 149 192 66 0 112 -52 116 -128
3 -62 9 -61 26 5 9 32 17 64 19 72 2 7 -2 16 -10 19 -8 2 -11 0 -7 -6 15 -24
-21 -17 -47 10 -15 16 -38 33 -51 38 -41 15 -120 19 -151 7z"/>
<path d="M1507 4199 c-10 -6 -16 -18 -13 -27 3 -9 7 -39 10 -67 5 -49 16 -141
22 -180 1 -11 3 -28 3 -37 1 -10 5 -18 10 -18 6 0 8 9 6 20 -3 14 3 22 21 26
13 3 24 10 24 15 0 5 3 8 8 7 4 -1 21 5 38 14 l30 17 53 -51 c36 -36 49 -54
41 -62 -5 -5 -10 -17 -10 -25 0 -12 2 -12 18 0 9 8 42 28 72 43 67 35 80 46
54 46 -16 0 -105 64 -124 89 -3 3 -30 26 -60 51 -30 25 -68 57 -85 72 -54 49
-90 78 -95 78 -3 0 -13 -5 -23 -11z m101 -183 l43 -43 -48 -24 c-26 -13 -51
-25 -55 -27 -8 -4 -17 38 -22 110 -5 58 -5 58 17 43 12 -8 41 -35 65 -59z"/>
<path d="M1074 3956 c-17 -8 -73 -55 -125 -105 -77 -75 -89 -90 -66 -85 26 6
38 -4 157 -126 71 -73 131 -138 133 -144 2 -6 0 -19 -5 -28 -5 -10 -6 -18 -2
-18 10 0 134 124 134 134 0 6 -5 5 -12 -2 -7 -7 -18 -12 -24 -12 -15 0 -134
116 -134 130 0 18 48 42 70 35 12 -4 47 -25 78 -46 32 -22 67 -39 83 -39 35 0
89 52 89 87 l0 25 -18 -22 c-17 -21 -18 -21 -42 -2 -41 32 -106 62 -126 58
-11 -3 -31 -9 -45 -14 l-27 -11 16 32 c22 43 24 75 7 108 -30 56 -79 72 -141
45z m38 -80 c24 -19 52 -66 54 -91 1 -15 -28 -64 -42 -69 -12 -5 -118 96 -137
129 -16 30 37 69 78 58 11 -3 32 -15 47 -27z"/>
<path d="M3580 3929 c-18 -11 -38 -26 -45 -32 -33 -32 -65 -56 -65 -49 0 4 -4
2 -8 -4 -4 -5 -25 -23 -47 -40 -22 -16 -49 -37 -60 -47 -11 -10 -32 -26 -47
-35 -16 -9 -28 -19 -28 -23 0 -9 -50 -23 -70 -20 -17 2 19 -29 68 -59 32 -19
45 -13 18 9 -18 15 -12 49 11 70 14 13 129 103 178 139 6 4 18 14 29 22 17 13
17 12 12 -20 -3 -19 -12 -58 -19 -87 l-12 -52 -47 29 c-27 17 -50 30 -53 30
-13 0 -3 -18 13 -24 32 -13 62 -31 62 -38 0 -5 6 -8 14 -8 11 0 13 -7 6 -32
-5 -18 -12 -48 -15 -67 -8 -46 -14 -54 -36 -48 -27 7 -34 -10 -7 -18 12 -4 45
-23 74 -41 60 -38 79 -43 66 -16 -9 17 -9 35 4 102 4 19 8 44 10 55 1 11 10
61 19 110 31 166 32 182 20 198 -10 14 -15 14 -45 -4z"/>
<path d="M1535 3785 c0 -41 3 -75 8 -75 4 0 7 4 7 8 0 5 18 15 41 22 43 14 63
33 33 30 -40 -5 -52 1 -63 28 -7 16 -11 35 -9 42 2 7 -1 14 -7 16 -6 3 -10
-25 -10 -71z"/>
<path d="M2089 3784 c-205 -31 -371 -89 -556 -195 -116 -66 -293 -218 -391
-334 -69 -82 -211 -317 -214 -352 0 -5 -8 -24 -18 -43 -16 -32 -58 -163 -75
-235 -34 -144 -42 -422 -15 -570 56 -320 205 -603 434 -828 69 -67 216 -184
246 -195 8 -3 17 -8 20 -11 28 -32 297 -149 381 -166 9 -2 33 -8 55 -15 149
-43 451 -48 639 -10 147 29 305 89 455 171 31 17 141 90 157 104 6 5 31 26 54
45 53 43 152 143 199 200 19 23 41 49 48 56 6 7 12 15 12 19 0 3 11 21 24 38
55 74 144 255 180 367 55 172 74 306 71 500 -3 135 -10 199 -40 335 -12 55
-65 204 -97 272 -90 191 -263 414 -404 519 -22 16 -45 35 -52 42 -12 11 -62
45 -117 79 -99 62 -333 162 -420 179 -11 2 -56 11 -100 20 -105 21 -363 26
-476 8z"/>
<path d="M810 3280 c-8 -6 -12 -10 -7 -10 4 0 -2 -9 -14 -21 -21 -21 -24 -62
-6 -86 17 -24 28 -13 23 21 -6 39 9 58 41 50 38 -10 62 -83 38 -118 -19 -27
-19 -35 2 -32 47 7 63 86 27 141 -16 24 -64 61 -64 49 0 -4 -6 -2 -13 4 -8 7
-18 7 -27 2z"/>
<path d="M3933 3207 c1 -7 -5 -11 -12 -9 -8 2 -24 -1 -35 -6 -96 -44 -125 -48
-143 -22 -21 30 -35 14 -15 -19 41 -68 73 -111 81 -111 14 0 20 25 10 41 -5 8
-9 19 -9 24 0 9 84 52 131 68 24 8 30 43 8 44 -10 1 -18 -4 -16 -10z"/>
<path d="M614 2938 c-32 -26 -32 -72 1 -121 18 -26 33 -37 51 -37 14 0 22 -4
19 -10 -3 -6 1 -7 9 -4 9 3 16 1 16 -5 0 -21 36 6 52 39 14 30 14 34 -15 91
-16 32 -35 60 -41 61 -46 6 -70 2 -92 -14z m80 -35 c30 -32 42 -78 26 -97 -9
-12 -16 -12 -40 1 -17 8 -30 17 -30 19 0 3 5 2 11 -2 7 -4 2 6 -9 22 -23 32
-24 60 -1 75 18 11 15 13 43 -18z"/>
<path d="M4057 2924 c-3 -3 -23 -7 -44 -9 -21 -2 -38 -4 -38 -5 0 -1 -13 -3
-28 -5 -16 -1 -33 -8 -38 -16 -19 -30 -8 -36 34 -20 27 10 37 6 54 -26 13 -22
2 -40 -16 -28 -5 3 -12 1 -16 -5 -4 -6 -10 -8 -15 -5 -4 3 -10 -4 -13 -16 -5
-19 -2 -20 51 -15 89 8 117 16 130 37 10 16 9 19 -5 20 -26 2 -26 2 -48 -5
-15 -4 -23 1 -32 19 -15 32 -6 39 55 43 16 2 22 7 20 19 -3 16 -40 28 -51 17z"/>
<path d="M484 2584 c3 -8 1 -16 -4 -19 -11 -7 -2 -62 17 -98 41 -79 158 -54
177 38 6 29 3 31 -54 58 -67 30 -144 42 -136 21z m110 -55 c39 -22 39 -23 30
-56 -15 -55 -94 -18 -94 44 0 39 14 42 64 12z"/>
<path d="M4095 2589 c-4 -12 -1 -44 6 -59 4 -9 7 -24 8 -45 1 -17 3 -18 11 -5
5 8 10 11 10 6 0 -5 8 -2 19 8 17 15 19 15 31 0 10 -11 11 -20 3 -32 -15 -25
-53 -25 -91 -2 -26 16 -33 26 -30 47 4 31 -17 42 -30 16 -16 -28 -3 -66 31
-93 24 -19 42 -25 80 -24 59 1 74 15 80 73 2 23 10 47 17 51 18 11 -1 20 -57
25 -32 4 -54 12 -65 26 -13 16 -19 18 -23 8z"/>
<path d="M442 2211 c-5 -14 -5 -45 1 -75 17 -86 48 -82 41 5 -2 27 -1 49 3 49
16 -1 38 -26 40 -45 6 -45 10 -59 21 -63 8 -2 12 10 12 36 0 28 4 39 15 39 9
0 15 -10 16 -26 0 -24 1 -24 10 -6 7 16 8 12 6 -17 -2 -30 1 -38 14 -38 24 0
24 120 0 121 -9 0 -25 3 -36 5 -11 3 -42 7 -69 9 -27 2 -53 10 -57 17 -6 9
-11 6 -17 -11z"/>
<path d="M4057 2203 c-16 -16 -5 -33 21 -33 15 0 34 -6 41 -12 11 -11 12 -10
6 2 -7 12 -6 13 6 3 19 -15 98 -22 122 -11 32 16 2 34 -59 37 -30 1 -67 6 -80
12 -30 11 -48 12 -57 2z"/>
<path d="M4051 1939 c-10 -17 -4 -22 49 -49 33 -17 60 -31 60 -33 0 -1 -25 -3
-56 -4 -41 -1 -61 -7 -75 -21 -17 -19 -17 -21 -1 -34 40 -33 121 -63 160 -59
26 2 -7 38 -47 50 -22 6 -43 16 -46 21 -5 9 83 27 115 23 20 -2 31 19 18 34
-6 8 -46 31 -88 52 -73 36 -78 37 -89 20z"/>
<path d="M632 1862 c-7 -2 -10 -7 -7 -12 2 -4 -10 -6 -28 -4 -104 12 -127 9
-127 -17 0 -18 4 -20 25 -15 44 11 44 -2 -1 -50 -24 -26 -44 -56 -44 -67 0
-17 2 -18 17 -6 10 8 35 32 55 54 22 22 38 33 38 25 0 -8 11 -20 25 -27 15 -6
22 -7 19 -1 -4 6 1 8 14 4 31 -10 61 24 56 63 -4 36 -23 60 -42 53z m14 -69
c-4 -26 -29 -27 -51 -3 -18 20 -18 20 18 20 28 0 35 -4 33 -17z"/>
<path d="M3961 1591 c-8 -5 -11 -15 -7 -22 14 -27 32 -57 44 -71 10 -13 6 -15
-28 -13 -24 1 -45 -4 -51 -12 -6 -7 -8 -14 -3 -14 24 -4 53 -7 89 -10 22 -2
47 -11 55 -20 23 -24 66 -30 67 -8 1 10 -6 21 -16 24 -10 3 -32 19 -49 35 -17
15 -32 27 -34 24 -3 -2 -5 3 -5 11 0 16 -35 85 -43 85 -3 0 -11 -4 -19 -9z"/>
<path d="M722 1529 c-13 -5 -28 -7 -33 -3 -5 3 -9 2 -9 -3 0 -4 -21 -9 -46
-11 -46 -2 -80 -18 -79 -37 2 -29 63 -105 85 -105 5 0 10 -4 10 -10 0 -5 5
-10 11 -10 5 0 7 4 4 10 -3 5 0 7 8 4 8 -3 18 6 25 21 7 15 20 25 32 25 12 0
18 -4 15 -10 -3 -5 0 -7 8 -4 22 8 34 63 22 101 -11 38 -21 44 -53 32z m28
-65 c12 -32 12 -34 -1 -34 -16 0 -39 26 -39 44 0 26 30 18 40 -10z m-81 -24
c24 -50 7 -59 -31 -17 -33 36 -34 44 -10 50 9 3 18 5 19 6 2 0 11 -17 22 -39z"/>
<path d="M3773 1224 l-34 -36 45 -46 c25 -26 53 -56 63 -68 46 -54 76 -34 99
64 15 63 10 84 -20 81 -11 0 -24 0 -28 1 -5 1 -14 3 -20 4 -7 1 -12 9 -12 19
3 33 -54 21 -93 -19z m77 0 c0 -3 -7 -16 -16 -30 -13 -19 -20 -22 -30 -13 -11
9 -11 15 2 34 9 14 22 21 30 18 8 -3 14 -7 14 -9z m56 -79 c-8 -42 -19 -50
-39 -27 -15 16 -14 20 10 51 29 37 39 29 29 -24z"/>
<path d="M842 1184 c-24 -30 -47 -52 -52 -49 -9 6 -60 -37 -60 -50 0 -10 31
-5 58 9 28 14 108 27 116 18 10 -9 66 -10 72 -1 10 16 -11 35 -38 36 -61 2
-68 4 -68 18 0 8 4 15 8 15 5 0 14 11 20 24 22 48 -13 35 -56 -20z"/>
<path d="M3583 972 c-19 -9 -36 -27 -42 -43 -10 -29 0 -46 19 -34 6 3 10 -1
10 -9 0 -9 4 -16 8 -16 4 0 13 -15 20 -34 16 -43 48 -74 63 -59 8 8 6 19 -6
37 -22 33 -16 40 19 26 40 -15 92 -12 106 5 10 12 9 15 -6 16 -98 6 -113 12
-107 43 3 16 1 26 -6 26 -7 0 -10 4 -7 8 5 9 -3 22 -24 38 -11 9 -23 8 -47 -4z
m42 -40 c-2 -9 -4 -23 -4 -29 -1 -20 -15 -15 -30 9 -12 19 -11 23 4 34 22 16
34 10 30 -14z"/>
<path d="M1075 946 c-76 -54 -105 -78 -100 -86 3 -5 -1 -11 -7 -14 -16 -6 44
-62 70 -64 50 -5 76 -2 82 8 4 7 10 11 14 10 30 -5 45 74 21 119 -23 45 -44
53 -80 27z m59 -58 c13 -18 14 -25 3 -42 -16 -24 -42 -29 -85 -15 -37 12 -34
28 14 60 37 24 49 24 68 -3z"/>
<path d="M3309 742 c-23 -19 -24 -24 -33 -99 -5 -35 -1 -47 19 -69 31 -33 79
-35 109 -5 29 29 32 118 5 142 -10 9 -19 21 -19 27 0 10 -23 22 -45 22 -7 0
-23 -8 -36 -18z m70 -47 c2 -11 8 -23 15 -27 8 -6 8 -8 0 -8 -6 0 -11 -8 -11
-17 0 -39 -15 -64 -37 -61 -11 2 -20 9 -18 16 1 6 -2 12 -6 12 -12 0 -13 42
-1 78 9 26 16 32 32 30 12 -2 23 -12 26 -23z"/>
<path d="M1348 684 c-34 -24 -68 -44 -75 -44 -6 0 -15 -10 -18 -21 -9 -27 14
-43 35 -25 8 7 30 14 48 14 25 1 32 -3 32 -19 0 -10 -5 -19 -10 -19 -5 0 -9
-3 -8 -7 0 -5 -2 -16 -6 -25 -4 -9 -6 -27 -4 -40 3 -20 6 -18 33 24 17 26 38
50 47 53 10 4 15 14 13 27 -3 11 3 34 11 50 8 16 12 37 9 47 -11 35 -41 30
-107 -15z m56 -26 c-19 -33 -27 -39 -35 -26 -5 8 0 17 14 25 28 16 30 16 21 1z"/>
<path d="M2997 581 c-46 -18 -66 -31 -65 -41 4 -17 48 -23 48 -7 0 8 3 8 11 0
9 -9 23 -56 43 -144 7 -33 30 -43 48 -21 9 11 10 14 1 8 -7 -4 -14 -4 -14 1
-1 4 -3 19 -5 33 -4 32 -12 75 -14 75 -1 0 -3 19 -5 41 -3 36 -1 43 21 53 14
6 22 16 19 21 -8 13 -7 13 -88 -19z"/>
<path d="M1661 513 c-1 -35 -8 -68 -19 -83 -20 -30 -25 -70 -9 -70 7 0 20 12
29 28 16 27 71 90 72 83 2 -9 76 34 76 45 0 26 -22 25 -61 0 -47 -32 -61 -27
-56 20 3 27 1 34 -13 34 -14 0 -17 -11 -19 -57z"/>
<path d="M2665 448 c-23 -26 -28 -40 -28 -80 1 -81 54 -116 110 -72 27 20 32
37 24 74 -1 3 -8 -4 -16 -14 -8 -11 -15 -17 -15 -13 0 4 -10 -1 -22 -12 -20
-19 -22 -19 -34 -3 -7 9 -14 27 -14 39 0 32 47 83 77 83 22 0 24 2 13 15 -21
26 -64 18 -95 -17z"/>
<path d="M2282 367 c-23 -49 -42 -96 -42 -103 0 -23 28 -16 46 11 9 14 23 25
30 25 8 0 14 5 14 10 0 6 7 10 15 10 10 0 15 -10 15 -29 0 -37 16 -81 30 -81
5 0 10 10 10 23 0 46 5 92 12 103 5 7 1 14 -7 18 -9 3 -15 18 -15 38 0 43 -11
59 -42 62 -22 3 -29 -7 -66 -87z m58 -13 c-18 -21 -24 -10 -9 18 8 14 14 18
17 10 2 -7 -2 -19 -8 -28z"/>
<path d="M1983 332 c-15 -10 -23 -41 -13 -47 5 -3 7 -12 3 -20 -3 -11 -1 -13
10 -9 12 4 37 52 37 69 0 7 -28 12 -37 7z"/>
</g>
</svg>
